<?xml version="1.0" encoding="UTF-8" standalone="no"?>
<!-- Created with Inkscape (http://www.inkscape.org/) -->

<svg
   xmlns:dc="http://purl.org/dc/elements/1.1/"
   xmlns:cc="http://creativecommons.org/ns#"
   xmlns:rdf="http://www.w3.org/1999/02/22-rdf-syntax-ns#"
   xmlns:svg="http://www.w3.org/2000/svg"
   xmlns="http://www.w3.org/2000/svg"
   xmlns:sodipodi="http://sodipodi.sourceforge.net/DTD/sodipodi-0.dtd"
   xmlns:inkscape="http://www.inkscape.org/namespaces/inkscape"
   width="200"
   height="115"
   viewBox="0 0 200 115"
   id="svg2"
   version="1.1"
   inkscape:version="0.92.3 (2405546, 2018-03-11)"
   sodipodi:docname="logo_montana_luminosa_inverse.svg">
  <defs
     id="defs4">
    <clipPath
       id="clipPath4154-5"
       clipPathUnits="userSpaceOnUse">
      <path
         inkscape:connector-curvature="0"
         id="path4156-6"
         d="M 0,340.16 H 226.772 V 0 H 0 Z" />
    </clipPath>
  </defs>
  <sodipodi:namedview
     id="base"
     pagecolor="#ffffff"
     bordercolor="#666666"
     borderopacity="1.0"
     inkscape:pageopacity="0.0"
     inkscape:pageshadow="2"
     inkscape:zoom="2.1076344"
     inkscape:cx="87.860419"
     inkscape:cy="47.719928"
     inkscape:document-units="px"
     inkscape:current-layer="layer1"
     showgrid="false"
     units="px"
     inkscape:window-width="1301"
     inkscape:window-height="744"
     inkscape:window-x="65"
     inkscape:window-y="24"
     inkscape:window-maximized="1" />
  <metadata
     id="metadata7">
    <rdf:RDF>
      <cc:Work
         rdf:about="">
        <dc:format>image/svg+xml</dc:format>
        <dc:type
           rdf:resource="http://purl.org/dc/dcmitype/StillImage" />
        <dc:title />
      </cc:Work>
    </rdf:RDF>
  </metadata>
  <g
     inkscape:label="Capa 1"
     inkscape:groupmode="layer"
     id="layer1"
     transform="translate(0,-937.36216)">
    <g
       id="g4239"
       transform="matrix(1.1352212,0,0,1.1352212,-1.8489672,32.779368)"
       style="fill:#1a1a1a;fill-opacity:1">
      <g
         id="g4150"
         transform="matrix(1.2230191,0,0,-1.2230191,-48.955222,1176.3393)"
         style="fill:#333333;fill-opacity:1">
        <g
           id="g4152"
           clip-path="url(#clipPath4154-5)"
           style="fill:#333333;fill-opacity:1">
          <g
             id="g4158"
             transform="translate(41.3599,260.0371)"
             style="fill:#333333;fill-opacity:1">
            <path
               d="m 0,0 12.885,12.625 6.421,6.333 6.357,6.392 c 1.049,1.074 2.139,2.11 3.156,3.215 l 3.085,3.283 3.083,3.283 1.542,1.641 0.385,0.411 c 0.176,0.184 0.281,0.276 0.425,0.419 0.28,0.258 0.515,0.53 0.847,0.773 1.229,1.024 2.585,1.808 4.077,2.319 1.482,0.51 3.057,0.756 4.629,0.703 1.571,-0.051 3.138,-0.406 4.574,-1.064 1.438,-0.655 2.734,-1.614 3.801,-2.777 l 0.019,-0.02 0.019,-0.027 c 1.183,-1.619 1.731,-3.495 2.71,-4.925 0.491,-0.709 1.112,-1.269 1.865,-1.63 0.182,-0.101 0.379,-0.174 0.582,-0.239 0.196,-0.078 0.402,-0.134 0.615,-0.175 l 0.316,-0.072 c 0.013,-0.018 0.204,-0.026 0.297,-0.039 0.231,-0.023 0.474,-0.053 0.677,-0.056 0.421,-0.035 0.875,-0.006 1.126,0.085 0.128,0.051 0.157,0.074 0.211,0.178 0.058,0.085 0.105,0.293 0.15,0.495 0.151,0.904 0.436,1.981 1.059,2.842 l 1.634,2.283 c 0.598,0.737 1.23,1.458 1.844,2.188 0.618,0.741 1.241,1.415 1.861,2.121 0.628,0.697 1.241,1.399 1.82,2.116 l 0.885,1.067 0.482,0.576 0.476,0.516 c 0.669,0.69 1.365,1.41 2.326,1.921 0.473,0.259 1.072,0.426 1.638,0.404 0.561,-0.009 1.076,-0.126 1.53,-0.246 0.923,-0.245 1.773,-0.451 2.666,-0.549 l 0.668,-0.059 0.612,0.046 0.558,0.136 c 0.208,0.072 0.408,0.131 0.623,0.214 0.83,0.299 1.829,0.798 3.024,0.625 l 0.064,-0.009 0.028,-0.014 c 0.221,-0.106 0.442,-0.219 0.658,-0.337 0.209,-0.121 0.353,-0.275 0.531,-0.413 0.36,-0.275 0.597,-0.605 0.895,-0.908 0.248,-0.325 0.522,-0.639 0.746,-0.973 0.236,-0.331 0.467,-0.662 0.68,-1.001 0.222,-0.336 0.425,-0.678 0.635,-1.017 l 0.304,-0.509 0.295,-0.54 c 0.378,-0.684 0.736,-1.399 1.085,-2.123 0.687,-1.432 1.333,-2.856 2.052,-4.227 l 0.571,-1.006 c 0.18,-0.342 0.406,-0.651 0.612,-0.974 0.396,-0.659 0.897,-1.237 1.355,-1.848 l -0.031,0.034 c 0.636,-0.66 1.142,-1.342 1.668,-2.009 0.521,-0.668 1.038,-1.325 1.591,-1.934 0.276,-0.302 0.555,-0.603 0.855,-0.866 0.293,-0.272 0.604,-0.522 0.926,-0.715 0.159,-0.108 0.322,-0.197 0.488,-0.259 0.164,-0.088 0.331,-0.125 0.496,-0.162 0.167,-0.063 0.327,-0.022 0.49,-0.041 0.161,0.004 0.312,0.069 0.473,0.089 l 0.026,0.004 0.017,0.01 c 0.161,0.098 0.341,0.106 0.499,0.249 0.162,0.121 0.331,0.231 0.477,0.406 0.156,0.151 0.306,0.316 0.44,0.507 0.144,0.178 0.281,0.365 0.408,0.567 0.525,0.787 0.992,1.645 1.49,2.501 0.254,0.428 0.508,0.856 0.792,1.277 0.285,0.419 0.58,0.84 0.947,1.223 0.35,0.389 0.773,0.751 1.287,1.006 0.234,0.161 0.55,-0.056 0.823,0.033 0.287,0.047 0.585,-0.23 0.875,-0.23 h 0.024 l 0.023,0.234 c 0.154,-0.061 0.308,-0.007 0.457,-0.079 0.147,-0.073 0.242,-0.115 0.363,-0.204 0.251,-0.178 0.389,-0.366 0.587,-0.565 0.334,-0.418 0.62,-0.836 0.887,-1.274 0.527,-0.88 0.98,-1.773 1.433,-2.669 0.453,-0.895 0.889,-1.79 1.36,-2.66 0.474,-0.862 0.969,-1.734 1.594,-2.407 l -0.033,0.031 1.428,-0.958 1.558,-0.771 1.635,-0.635 1.677,-0.558 c 1.129,-0.349 2.257,-0.728 3.384,-1.124 l 1.664,-0.681 c 0.538,-0.273 1.068,-0.563 1.599,-0.844 l -0.016,0.009 0.746,-0.452 0.679,-0.532 c 0.426,-0.381 0.83,-0.776 1.221,-1.179 l 0.011,-0.011 0.005,-0.006 c 0.816,-1.072 1.569,-2.184 2.344,-3.28 0.779,-1.093 1.472,-2.245 2.211,-3.364 0.363,-0.565 0.735,-1.123 1.088,-1.693 l 1.005,-1.744 2.009,-3.485 -2.094,3.433 -1.046,1.716 c -0.367,0.56 -0.753,1.109 -1.128,1.664 -0.765,1.099 -1.485,2.23 -2.288,3.301 -0.8,1.074 -1.579,2.164 -2.414,3.206 l 0.016,-0.018 c -0.399,0.393 -0.806,0.769 -1.223,1.125 l -0.655,0.487 -0.701,0.402 -0.011,0.006 -0.006,0.003 -1.564,0.777 -1.642,0.625 c -1.117,0.364 -2.248,0.704 -3.387,1.038 l -1.705,0.541 -1.687,0.63 -1.639,0.783 c -0.516,0.325 -1.024,0.666 -1.537,1.001 l -0.014,0.009 -0.019,0.021 c -0.751,0.79 -1.253,1.677 -1.757,2.557 -0.494,0.885 -0.946,1.781 -1.408,2.666 -0.463,0.884 -0.924,1.767 -1.439,2.599 -0.26,0.413 -0.532,0.811 -0.829,1.173 -0.159,0.151 -0.301,0.362 -0.471,0.466 -0.163,0.155 -0.323,0.209 -0.469,0.279 l 0.045,-0.009 c -0.198,-0.016 -0.398,0.015 -0.59,-0.02 -0.185,-0.079 -0.39,-0.068 -0.562,-0.201 -0.363,-0.187 -0.703,-0.471 -1,-0.815 -0.308,-0.329 -0.576,-0.72 -0.837,-1.114 -0.26,-0.397 -0.5,-0.816 -0.741,-1.235 -0.478,-0.847 -0.936,-1.723 -1.489,-2.577 -0.132,-0.216 -0.281,-0.427 -0.443,-0.634 -0.147,-0.212 -0.321,-0.415 -0.515,-0.609 -0.17,-0.206 -0.404,-0.38 -0.636,-0.551 -0.213,-0.188 -0.541,-0.277 -0.812,-0.404 l 0.042,0.014 c -0.253,-0.058 -0.509,-0.147 -0.769,-0.159 -0.26,0.01 -0.533,-0.021 -0.774,0.058 -0.251,0.051 -0.497,0.115 -0.712,0.224 -0.231,0.089 -0.44,0.203 -0.635,0.331 -0.404,0.242 -0.76,0.53 -1.089,0.831 -0.339,0.296 -0.64,0.617 -0.937,0.938 -0.59,0.645 -1.126,1.321 -1.651,1.989 -0.525,0.663 -1.042,1.34 -1.588,1.899 l -0.024,0.026 -0.007,0.01 c -0.49,0.643 -1.023,1.258 -1.445,1.947 -0.218,0.339 -0.457,0.667 -0.647,1.021 l -0.598,1.045 c -0.749,1.413 -1.412,2.853 -2.091,4.256 -0.338,0.691 -0.686,1.382 -1.074,2.074 l -0.271,0.494 -0.305,0.503 c -0.205,0.329 -0.405,0.664 -0.619,0.982 -0.207,0.328 -0.428,0.64 -0.649,0.95 -0.216,0.317 -0.465,0.595 -0.695,0.896 -0.254,0.253 -0.487,0.57 -0.761,0.767 -0.133,0.1 -0.264,0.239 -0.397,0.31 -0.134,0.064 -0.262,0.132 -0.39,0.207 l 0.092,-0.023 c -0.701,0.109 -1.493,-0.227 -2.391,-0.576 -0.221,-0.087 -0.47,-0.163 -0.704,-0.244 -0.256,-0.071 -0.544,-0.134 -0.809,-0.187 l -0.35,-0.029 -0.174,-0.015 -0.088,-0.008 -0.022,-0.002 -0.107,-0.001 -0.045,0.004 -0.732,0.061 c -0.969,0.1 -1.947,0.334 -2.833,0.566 -0.912,0.23 -1.608,0.333 -2.286,-0.069 -0.699,-0.372 -1.341,-1.006 -1.963,-1.661 l -0.473,-0.518 -0.42,-0.501 -0.912,-1.09 C 72.449,41.126 71.828,40.42 71.199,39.729 70.581,39.032 69.931,38.332 69.347,37.637 68.752,36.938 68.144,36.255 67.559,35.542 l -1.646,-2.275 c -0.476,-0.669 -0.71,-1.447 -0.872,-2.379 -0.062,-0.251 -0.101,-0.513 -0.278,-0.835 -0.068,-0.156 -0.217,-0.308 -0.349,-0.445 -0.151,-0.101 -0.323,-0.232 -0.475,-0.27 -0.634,-0.215 -1.142,-0.189 -1.649,-0.162 -0.265,0.01 -0.488,0.04 -0.722,0.064 -0.137,0.02 -0.185,0.007 -0.397,0.055 l -0.369,0.085 c -0.247,0.05 -0.491,0.118 -0.732,0.212 -0.243,0.08 -0.483,0.171 -0.713,0.297 -0.938,0.45 -1.742,1.194 -2.307,2.028 -1.116,1.685 -1.628,3.5 -2.673,4.917 l 0.037,-0.046 c -1.911,2.133 -4.69,3.416 -7.56,3.504 -1.432,0.054 -2.875,-0.164 -4.238,-0.625 -1.361,-0.446 -2.66,-1.18 -3.75,-2.063 -0.285,-0.193 -0.552,-0.487 -0.827,-0.734 L 37.655,36.504 37.262,36.098 35.694,34.473 32.557,31.225 29.421,27.977 C 28.385,26.884 27.281,25.861 26.214,24.8 l -6.451,-6.311 c -1.076,-1.051 -2.188,-2.063 -3.281,-3.097 l -3.29,-3.085 z"
               style="fill:#ffffff;fill-opacity:1;fill-rule:nonzero;stroke:none"
               id="path4160"
               inkscape:connector-curvature="0" />
          </g>
          <g
             id="g4162"
             transform="translate(57.6899,272.8667)"
             style="fill:#00c4cc;fill-opacity:1">
            <path
               d="m 0,0 c 5.434,4.809 10.251,9.947 15.39,15.084 0.641,0.963 1.283,1.606 1.925,2.569 0.643,0.321 1.286,0.963 1.606,1.606 0.321,0.321 0.642,0.321 0.964,0.642 3.211,4.495 8.992,6.422 14.129,4.817 3.853,-1.284 5.138,-5.138 7.385,-8.349 1.286,-1.606 3.384,-1.111 6.102,-1.606 1.453,-0.264 5.006,1.687 3.788,2.529 -1.286,0.889 0.798,3.395 0.798,3.395 3.212,3.211 4.084,6.6 7.294,9.49 0.965,0.642 1.929,0.963 3.213,0.642 2.568,-0.963 5.137,-0.642 7.386,0.321 1.283,0.321 1.768,-2.44 2.732,-3.404 2.569,-3.533 3.555,-6.328 5.482,-10.182 0.965,-1.606 2.702,-1.828 3.666,-3.112 1.928,-2.248 3.534,-5.139 6.424,-4.817 2.568,0 3.531,2.89 4.494,5.138 0.643,1.284 1.928,2.248 3.213,2.89 0.641,0 1.284,-0.642 1.926,-0.963 2.247,-2.89 2.891,-6.422 5.137,-8.992 2.89,-2.889 7.386,-2.569 11.241,-4.496 1.605,-0.962 4.173,-1.284 4.597,-3.593 -3.284,3.281 0.263,1.159 0,0 -3.284,3.281 -8.771,3.373 -13.108,3.644 -1.821,0.113 -7.597,-0.147 -4.383,-3.019 -2.65,-0.046 -5.109,1.012 -7.529,1.956 -1.415,0.371 -2.698,1.655 -4.304,1.334 -0.964,-0.643 0.322,-2.249 0,-2.249 -3.213,-1.605 -6.423,1.606 -8.993,3.854 -0.641,0.964 -1.283,1.927 -1.37,3.357 0.704,-0.389 -0.309,-2.17 0,0 0.736,-1.248 0.429,-2.846 1.29,-4.046 -1.935,0.173 -0.412,0.723 0,0 -3.867,1.457 -8.603,4.831 -8.319,9.489 0.078,-4.157 -3.719,-7.128 -3.916,-11.225 0.071,0.695 -0.005,1.393 -0.047,2.087 -1.221,-2.48 -4.742,-3.729 -4.132,-6.96 -0.06,3.369 -1.72,6.499 -1.616,9.886 0.102,3.449 1.722,6.763 1.05,10.245 C 61.762,15.675 58.11,6.681 54.619,11.958 53.444,10.706 46.472,3.748 49.318,2.156 47.561,2.464 46.28,3.825 44.733,4.597 c 0.292,-1.741 0.69,-3.595 1.721,-5.064 -5.033,1.261 -6.676,6.396 -6.646,11.061 -0.68,-1.252 -3.044,-0.995 -4.185,-0.713 -1.961,0.482 -2.461,2.479 -3.647,3.855 -0.113,-0.231 -0.863,-1.782 -0.119,-1.613 0.66,0.15 0.405,1.295 0.119,1.613 C 28.238,7.914 20.866,6.626 14.57,5.491 15.777,7.01 16.22,8.936 17.057,10.651 14.338,5.064 7.08,5.467 2.613,2.099"
               style="fill:#00c4cc;fill-opacity:1;fill-rule:nonzero;stroke:none"
               id="path4164"
               inkscape:connector-curvature="0" />
          </g>
        </g>
      </g>
      <g
         aria-label="MONTAÑA LUMINOSA"
         transform="scale(0.66632471,1.5007698)"
         style="font-variant:normal;font-weight:normal;font-stretch:normal;line-height:0%;font-family:'Cooper Black';-inkscape-font-specification:CooperBlack;writing-mode:lr-tb;fill:#ffffff;fill-opacity:1;fill-rule:nonzero;stroke:none"
         id="text4166">
        <path
           d="m 29.828253,579.60097 q 0,0.70909 -0.359686,1.02767 -0.359685,0.31858 -1.192099,0.31858 -0.822138,0 -1.274314,-0.66799 -0.236364,-0.3494 -0.236364,-1.5415 l 0.02055,-0.48301 0.03083,-0.48301 q 0.04111,-0.64743 0.04111,-0.99684 0,-5.0767 -0.390515,-5.0767 -0.184981,0 -1.603169,3.38104 -1.418187,3.38104 -1.633998,3.67907 -0.441899,0.6166 -1.099609,0.6166 -0.657711,0 -1.089333,-0.77075 -0.195258,-0.33913 -1.623722,-3.66879 -1.418187,-3.33993 -1.664828,-3.33993 -0.380239,0 -0.380239,6.7518 0,1.59289 -0.256918,1.90119 -0.452176,0.53439 -1.335974,0.53439 -0.441899,0 -0.71937,-0.23636 -0.267195,-0.24664 -0.267195,-0.54467 0,-0.3083 0.154151,-0.91463 0.164427,-0.60632 0.246641,-1.32569 0.08221,-0.71937 0.08221,-2.47669 l 0.01028,-0.53439 0.07194,-1.61345 q 0.08221,-2.13755 0.08221,-2.65139 0,-0.51384 -0.07194,-1.04823 l -0.246641,-1.29486 q 0,-1.1921 1.469571,-1.1921 1.233207,0 2.199218,1.28459 0.781031,1.03795 2.065621,3.96681 1.294867,2.91859 1.572339,2.91859 l 0.215811,-0.3083 1.222929,-2.70278 q 1.633999,-3.55574 1.747043,-3.72017 0.924905,-1.41819 2.486966,-1.41819 0.863245,0 1.202377,0.40079 0.184981,0.21581 0.184981,0.62688 l -0.05138,0.38024 q -0.04111,0.40079 -0.06166,0.94546 l -0.01028,0.50356 0.01028,0.50356 q 0,0.54466 0,1.08933 l 0.05138,4.38816 q 0,1.62372 0.04111,2.03479 0.05138,0.40079 0.205535,1.0174 0.154151,0.6166 0.154151,0.73992 z"
           style="font-style:normal;font-variant:normal;font-weight:bold;font-stretch:normal;font-size:21.04672432px;line-height:125%;font-family:'Averia GWF';-inkscape-font-specification:'Averia GWF Bold';letter-spacing:0px;word-spacing:0px;fill:#ffffff;fill-opacity:1"
           id="path4760" />
        <path
           d="m 35.577372,573.48632 v 0.82214 q 0,1.06878 0.308301,2.17866 0.832415,3.06247 3.411872,3.06247 1.572338,0 2.517796,-1.23321 0.411069,-0.53439 0.709094,-1.57234 0.298025,-1.04822 0.298025,-1.97313 l 0.02055,-0.32885 v -0.82214 q 0,-0.98657 -0.277471,-2.08618 -0.513836,-2.04506 -1.808703,-2.75416 -0.698817,-0.38023 -1.407911,-0.38023 H 39.03035 q -1.541508,0 -2.548627,1.42846 -0.328855,0.47273 -0.616603,1.47985 -0.287748,1.00712 -0.287748,2.17866 z m 10.18423,-0.0411 v 0.7091 q 0,1.54151 -0.472729,2.98025 -0.462452,1.42846 -1.243483,2.33281 -0.781031,0.89408 -2.034791,1.46957 -1.243483,0.5755 -2.682224,0.5755 -1.428464,-0.0103 -2.702778,-0.52411 -3.781833,-1.54151 -3.781833,-6.8443 v -0.47273 q 0,-1.71621 0.493283,-3.10357 0.503559,-1.39763 1.294866,-2.2506 0.801585,-0.85297 1.973131,-1.33597 1.181823,-0.48301 2.558903,-0.48301 h 0.246642 q 2.887758,0 4.665631,1.91147 0.68854,0.72965 1.181823,2.09645 0.503559,1.36681 0.503559,2.93914 z"
           style="font-style:normal;font-variant:normal;font-weight:bold;font-stretch:normal;font-size:21.04672432px;line-height:125%;font-family:'Averia GWF';-inkscape-font-specification:'Averia GWF Bold';letter-spacing:0px;word-spacing:0px;fill:#ffffff;fill-opacity:1"
           id="path4762" />
        <path
           d="m 50.615755,580.97805 q -0.01028,0 -0.03083,0 -0.863244,0 -0.863244,-0.66799 0,-0.3494 0.339131,-1.45929 0.154151,-0.50356 0.154151,-2.01424 l 0.02055,-2.15811 v -0.87352 l 0.01028,-1.31542 q 0,-2.33282 -0.04111,-2.79527 -0.03083,-0.46245 -0.267194,-1.17154 -0.236365,-0.7091 -0.236365,-0.97629 0,-0.27747 0.205535,-0.4419 0.215811,-0.17471 0.986565,-0.17471 0.781031,0 1.387357,0.35969 0.606327,0.35968 1.22293,1.07905 1.459294,1.68539 2.805545,3.79211 2.702777,4.23401 2.836375,4.23401 0.195257,0 0.195257,-2.00396 l 0.02055,-0.84269 q 0.01028,-0.43162 0.01028,-1.82925 0,-1.39764 -0.113043,-2.37393 -0.113044,-0.98656 -0.113044,-1.44901 0,-0.46246 0.359685,-0.76048 0.369962,-0.29803 1.037949,-0.29803 0.667987,0 0.966011,0.17471 0.544667,0.31858 0.544667,1.1921 l -0.01028,0.35968 q -0.02055,0.3083 -0.133597,0.77076 l -0.09249,0.36996 q -0.133597,0.53439 -0.195258,0.87352 -0.06166,0.33913 -0.06166,4.58342 0,4.24428 -0.236365,5.26168 -0.143874,0.60632 -0.647433,0.60632 -1.233206,0 -2.034791,-0.91462 -0.431622,-0.48301 -1.582615,-2.33282 -1.140716,-1.84981 -1.469571,-2.35337 -2.63084,-3.96681 -2.990526,-3.96681 -0.236364,0 -0.236364,2.01424 0,2.00396 0.05138,3.32965 0.05138,1.3257 0.133598,1.87037 0.09249,0.53439 0.09249,0.71937 0,1.58261 -2.024514,1.58261 z"
           style="font-style:normal;font-variant:normal;font-weight:bold;font-stretch:normal;font-size:21.04672432px;line-height:125%;font-family:'Averia GWF';-inkscape-font-specification:'Averia GWF Bold';letter-spacing:0px;word-spacing:0px;fill:#ffffff;fill-opacity:1"
           id="path4764" />
        <path
           d="m 75.89484,566.63175 q 1.150993,0 1.520955,0.25692 0.380238,0.24664 0.380238,1.01739 v 0.2672 q 0,0.94546 -0.616603,1.0585 -0.03083,0.0103 -0.08221,0.0103 -0.298025,0 -1.140716,-0.22609 -0.986565,-0.25692 -1.469571,-0.25692 -0.472729,0 -0.729647,0.25692 -0.256918,0.25692 -0.359685,0.87352 -0.102767,0.6166 -0.102767,2.79527 v 2.61028 l -0.01028,0.28775 v 1.23321 q 0,0.94546 0.02055,1.16127 0.03083,0.21581 0.277472,0.91463 0.246641,0.71937 0.246641,1.27431 0,0.98657 -1.562062,0.98657 h -0.842691 q -1.397634,0 -1.397634,-1.151 0,-0.40079 0.256918,-1.21265 0.256918,-0.82214 0.308302,-1.42846 0.06166,-0.61661 0.06166,-3.9771 0,-3.36048 -0.12332,-3.89487 -0.174705,-0.73993 -1.058503,-0.73993 -0.441899,0 -1.335973,0.28775 -0.883798,0.27747 -1.140716,0.27747 -0.781031,0 -0.781031,-1.02767 0,-1.02767 0.380239,-1.30514 0.390515,-0.27747 1.798426,-0.27747 l 1.993684,-0.0411 2.610287,-0.0308 z"
           style="font-style:normal;font-variant:normal;font-weight:bold;font-stretch:normal;font-size:21.04672432px;line-height:125%;font-family:'Averia GWF';-inkscape-font-specification:'Averia GWF Bold';letter-spacing:0px;word-spacing:0px;fill:#ffffff;fill-opacity:1"
           id="path4766" />
        <path
           d="m 84.413454,574.88396 v 0.12332 q 0,0.21581 1.407911,0.21581 h 0.873521 q 1.28459,0 1.28459,-0.19526 v -0.12332 q 0,-0.91463 -1.449017,-4.68619 -0.195258,-0.51383 -0.267195,-0.51383 -0.02055,0 -0.113044,0.22609 -0.08221,0.21581 -0.205534,0.483 -1.531232,3.31938 -1.531232,4.47038 z m 8.139163,4.55258 v 0.20554 q 0,0.9249 -0.524113,1.26403 -0.339131,0.21582 -1.161269,0.21582 h -0.246641 q -0.842692,0 -1.13044,-0.50356 -0.143874,-0.24665 -0.318578,-1.43874 -0.174704,-1.1921 -0.606327,-1.64428 -0.431622,-0.45218 -1.623721,-0.45218 -2.713055,0 -3.185784,0.42135 -0.472729,0.42135 -0.678264,1.71621 -0.205534,1.28459 -0.308301,1.43874 -0.267195,0.41107 -1.068779,0.41107 -0.801584,0 -1.109886,-0.43162 -0.298025,-0.43162 -0.298025,-1.14072 0,-0.31857 0.863245,-2.04506 0.08221,-0.15415 1.551785,-4.40872 1.469571,-4.26484 1.870363,-5.09725 0.411069,-0.84269 0.791307,-1.07906 0.380239,-0.23636 1.13044,-0.23636 0.760477,0 1.099609,0.36996 0.339131,0.35969 0.863244,1.49013 0.53439,1.13043 1.459295,3.70989 0.935181,2.57946 1.366803,3.90516 0.431623,1.31542 0.50356,1.49012 0.760477,1.74704 0.760477,1.83953 z"
           style="font-style:normal;font-variant:normal;font-weight:bold;font-stretch:normal;font-size:21.04672432px;line-height:125%;font-family:'Averia GWF';-inkscape-font-specification:'Averia GWF Bold';letter-spacing:0px;word-spacing:0px;fill:#ffffff;fill-opacity:1"
           id="path4768" />
        <path
           d="m 107.97485,563.25071 v 0.18498 q 0,0.79131 -0.65771,1.35653 -0.65771,0.56522 -1.27431,0.56522 h -0.27748 q -0.44189,0 -1.53123,-0.48301 -1.08933,-0.48301 -1.49012,-0.48301 -0.39052,0 -0.83242,0.38024 -0.44189,0.36996 -0.89407,0.36996 -0.51384,0 -0.51384,-0.63715 0,-0.64744 0.60633,-1.30515 0.60633,-0.65771 1.42846,-0.65771 h 0.0925 l 0.0925,0.0103 q 0.51383,0 1.57233,0.47273 1.06878,0.47273 1.44902,0.47273 0.39052,0 0.84269,-0.35969 0.46245,-0.35968 0.8838,-0.35968 0.50356,0 0.50356,0.47273 z m -0.70909,4.87116 q 0,-1.20237 1.64427,-1.20237 0.69882,0 1.06878,0.32885 0.36996,0.31858 0.36996,1.20238 0,0.33913 -0.18498,1.03795 -0.18498,0.68854 -0.24664,1.08933 -0.0514,0.39052 -0.0514,2.68222 l -0.0206,1.74705 -0.0103,0.4419 -0.0206,2.16838 q 0,2.67195 -0.0822,2.89804 -0.17471,0.47273 -0.79131,0.47273 -1.1921,0 -2.05534,-0.95574 -0.39052,-0.43162 -3.04191,-4.49092 -2.64112,-4.05931 -2.9597,-4.05931 -0.1336,0 -0.1336,1.66483 0,1.65455 0.0617,2.48697 0.0617,0.82213 0.1747,2.117 0.12332,1.29487 0.12332,1.52096 0,1.82925 -1.952577,1.82925 -0.750201,0 -0.945458,-0.22609 -0.195258,-0.23636 -0.195258,-0.65771 0,-0.43162 0.226088,-1.09961 0.226088,-0.67826 0.246641,-0.96601 0.02055,-0.28775 0.02055,-3.18578 v -4.41899 q 0,-1.06878 -0.256918,-1.95258 -0.246642,-0.8838 -0.246642,-1.08933 l 0.113044,-0.27747 q 0.236365,-0.32886 1.058503,-0.32886 0.822133,0 1.479843,0.28775 0.66799,0.28775 1.41819,1.22293 l 0.23637,0.32886 q 0.45217,0.6166 1.18182,1.73676 0.72965,1.10989 2.34309,3.49409 1.61345,2.3842 1.66483,2.3842 0.12332,0 0.12332,-2.76444 0,-2.76444 -0.18498,-4.05931 -0.1747,-1.29486 -0.1747,-1.40791 z"
           style="font-style:normal;font-variant:normal;font-weight:bold;font-stretch:normal;font-size:21.04672432px;line-height:125%;font-family:'Averia GWF';-inkscape-font-specification:'Averia GWF Bold';letter-spacing:0px;word-spacing:0px;fill:#ffffff;fill-opacity:1"
           id="path4770" />
        <path
           d="m 119.28785,574.88396 v 0.12332 q 0,0.21581 1.40791,0.21581 h 0.87352 q 1.28459,0 1.28459,-0.19526 v -0.12332 q 0,-0.91463 -1.44901,-4.68619 -0.19526,-0.51383 -0.2672,-0.51383 -0.0206,0 -0.11304,0.22609 -0.0822,0.21581 -0.20554,0.483 -1.53123,3.31938 -1.53123,4.47038 z m 8.13916,4.55258 v 0.20554 q 0,0.9249 -0.52411,1.26403 -0.33913,0.21582 -1.16127,0.21582 h -0.24664 q -0.84269,0 -1.13044,-0.50356 -0.14387,-0.24665 -0.31858,-1.43874 -0.1747,-1.1921 -0.60632,-1.64428 -0.43163,-0.45218 -1.62373,-0.45218 -2.71305,0 -3.18578,0.42135 -0.47273,0.42135 -0.67826,1.71621 -0.20554,1.28459 -0.3083,1.43874 -0.2672,0.41107 -1.06878,0.41107 -0.80159,0 -1.10989,-0.43162 -0.29802,-0.43162 -0.29802,-1.14072 0,-0.31857 0.86324,-2.04506 0.0822,-0.15415 1.55179,-4.40872 1.46957,-4.26484 1.87036,-5.09725 0.41107,-0.84269 0.79131,-1.07906 0.38024,-0.23636 1.13044,-0.23636 0.76047,0 1.0996,0.36996 0.33914,0.35969 0.86325,1.49013 0.53439,1.13043 1.45929,3.70989 0.93519,2.57946 1.36681,3.90516 0.43162,1.31542 0.50356,1.49012 0.76047,1.74704 0.76047,1.83953 z"
           style="font-style:normal;font-variant:normal;font-weight:bold;font-stretch:normal;font-size:21.04672432px;line-height:125%;font-family:'Averia GWF';-inkscape-font-specification:'Averia GWF Bold';letter-spacing:0px;word-spacing:0px;fill:#ffffff;fill-opacity:1"
           id="path4772" />
        <path
           d="m 140.11565,566.6523 q 1.82926,0 1.82926,1.24349 0,0.38023 -0.20553,1.21265 -0.20554,0.83241 -0.23637,1.29487 -0.0205,0.46245 -0.0205,3.8846 0,3.42214 0.18498,4.04902 0.19526,0.62688 0.63716,0.77076 0.25691,0.0822 1.15099,0.0822 0.89407,0 2.26088,-0.34941 1.3668,-0.34941 1.65455,-0.34941 0.28775,0 0.49328,0.16443 0.20554,0.16443 0.20554,0.72965 v 0.24664 q 0,0.84269 -0.25692,1.14072 -0.38024,0.4419 -1.70594,0.4419 h -0.78103 l -0.25692,-0.0103 h -1.31542 l -0.78103,-0.0103 q -3.42215,0 -4.0182,-0.18498 -0.58577,-0.18498 -0.58577,-0.9249 0,-0.19526 0.1336,-0.7091 0.1336,-0.51383 0.19526,-0.85296 0.0719,-0.34941 0.0719,-1.10989 l 0.0103,-0.79131 v -3.39132 l -0.0103,-0.26719 v -0.50356 l -0.0103,-0.25692 v -0.50356 l -0.0103,-0.51383 q 0,0 0,-0.78103 0,-0.53439 -0.27747,-1.43875 -0.27747,-0.90435 -0.27747,-1.12016 0,-0.70909 0.49328,-1.02767 0.24664,-0.16443 1.17155,-0.16443 z"
           style="font-style:normal;font-variant:normal;font-weight:bold;font-stretch:normal;font-size:21.04672432px;line-height:125%;font-family:'Averia GWF';-inkscape-font-specification:'Averia GWF Bold';letter-spacing:0px;word-spacing:0px;fill:#ffffff;fill-opacity:1"
           id="path4774" />
        <path
           d="m 154.42086,574.33929 q 0,2.94942 0.70909,3.96681 0.71937,1.0174 2.35337,1.0174 1.634,0 2.3842,-1.40791 0.54467,-1.0174 0.54467,-3.67907 l 0.0103,-0.38024 q 0.0103,-0.39051 0.0103,-0.86324 v -1.03795 q 0,-1.57234 -0.15415,-2.90831 -0.14387,-1.33598 -0.14387,-1.634 0,-0.76048 1.43874,-0.76048 0.91462,0 1.17154,0.33913 0.46245,0.61661 0.46245,1.22293 0,0.60633 -0.21581,1.33598 -0.20553,0.72964 -0.22608,1.09961 l -0.0103,0.35968 0.0103,0.7502 v 1.51068 q 0,2.99053 -0.17471,4.10041 -0.38024,2.37392 -2.58973,3.39132 -1.23321,0.55494 -2.83638,0.55494 -3.21661,0 -4.58341,-1.99368 -0.58578,-0.85297 -0.73993,-1.75732 -0.14387,-0.91463 -0.14387,-3.67907 0,-2.76443 -0.0617,-3.28855 -0.0514,-0.52411 -0.29803,-1.15099 -0.24664,-0.62688 -0.24664,-0.99684 v -0.3083 q 0,-0.69882 0.54467,-1.151 0.26719,-0.22608 1.28459,-0.22608 1.01739,0 1.32569,0.3083 0.31858,0.29802 0.31858,1.01739 l -0.0308,0.27747 -0.0411,0.29803 q -0.10277,0.89407 -0.10277,2.70278 l 0.0206,1.08933 0.0103,0.36996 z"
           style="font-style:normal;font-variant:normal;font-weight:bold;font-stretch:normal;font-size:21.04672432px;line-height:125%;font-family:'Averia GWF';-inkscape-font-specification:'Averia GWF Bold';letter-spacing:0px;word-spacing:0px;fill:#ffffff;fill-opacity:1"
           id="path4776" />
        <path
           d="m 183.70295,579.60097 q 0,0.70909 -0.35968,1.02767 -0.35969,0.31858 -1.1921,0.31858 -0.82214,0 -1.27432,-0.66799 -0.23636,-0.3494 -0.23636,-1.5415 l 0.0206,-0.48301 0.0308,-0.48301 q 0.0411,-0.64743 0.0411,-0.99684 0,-5.0767 -0.39051,-5.0767 -0.18499,0 -1.60317,3.38104 -1.41819,3.38104 -1.634,3.67907 -0.4419,0.6166 -1.09961,0.6166 -0.65771,0 -1.08933,-0.77075 -0.19526,-0.33913 -1.62373,-3.66879 -1.41818,-3.33993 -1.66482,-3.33993 -0.38024,0 -0.38024,6.7518 0,1.59289 -0.25692,1.90119 -0.45218,0.53439 -1.33597,0.53439 -0.4419,0 -0.71937,-0.23636 -0.2672,-0.24664 -0.2672,-0.54467 0,-0.3083 0.15415,-0.91463 0.16443,-0.60632 0.24664,-1.32569 0.0822,-0.71937 0.0822,-2.47669 l 0.0103,-0.53439 0.0719,-1.61345 q 0.0822,-2.13755 0.0822,-2.65139 0,-0.51384 -0.0719,-1.04823 l -0.24664,-1.29486 q 0,-1.1921 1.46957,-1.1921 1.2332,0 2.19921,1.28459 0.78104,1.03795 2.06563,3.96681 1.29486,2.91859 1.57233,2.91859 l 0.21582,-0.3083 1.22292,-2.70278 q 1.634,-3.55574 1.74705,-3.72017 0.9249,-1.41819 2.48696,-1.41819 0.86325,0 1.20238,0.40079 0.18498,0.21581 0.18498,0.62688 l -0.0514,0.38024 q -0.0411,0.40079 -0.0617,0.94546 l -0.0103,0.50356 0.0103,0.50356 q 0,0.54466 0,1.08933 l 0.0514,4.38816 q 0,1.62372 0.0411,2.03479 0.0514,0.40079 0.20553,1.0174 0.15415,0.6166 0.15415,0.73992 z"
           style="font-style:normal;font-variant:normal;font-weight:bold;font-stretch:normal;font-size:21.04672432px;line-height:125%;font-family:'Averia GWF';-inkscape-font-specification:'Averia GWF Bold';letter-spacing:0px;word-spacing:0px;fill:#ffffff;fill-opacity:1"
           id="path4778" />
        <path
           d="m 187.61253,580.85473 q -0.48301,-0.27747 -0.48301,-0.7502 0,-0.48301 0.36996,-1.08933 0.38024,-0.61661 0.47273,-1.29487 0.0925,-0.68854 0.0925,-3.99764 0,-3.30911 -0.0719,-3.82294 -0.0719,-0.52412 -0.48301,-1.151 -0.41107,-0.62688 -0.41107,-1.16127 0,-0.54466 0.56522,-0.73992 0.56522,-0.20553 1.81898,-0.20553 h 0.41107 q 0.86324,0 1.26404,0.28774 0.41107,0.28775 0.41107,0.90436 0,0.25691 -0.33914,0.96601 -0.33913,0.69881 -0.39051,1.20237 -0.0514,0.49329 -0.0514,3.98737 0,3.48381 0.0822,4.10041 0.0925,0.61661 0.41107,1.18183 0.32885,0.55494 0.32885,1.07905 0,0.80159 -1.61344,0.80159 h -0.41107 q -0.41107,-0.0206 -0.95574,-0.0206 -0.53439,0 -1.01739,-0.27747 z"
           style="font-style:normal;font-variant:normal;font-weight:bold;font-stretch:normal;font-size:21.04672432px;line-height:125%;font-family:'Averia GWF';-inkscape-font-specification:'Averia GWF Bold';letter-spacing:0px;word-spacing:0px;fill:#ffffff;fill-opacity:1"
           id="path4780" />
        <path
           d="m 196.82942,580.97805 q -0.0103,0 -0.0308,0 -0.86324,0 -0.86324,-0.66799 0,-0.3494 0.33913,-1.45929 0.15415,-0.50356 0.15415,-2.01424 l 0.0206,-2.15811 v -0.87352 l 0.0103,-1.31542 q 0,-2.33282 -0.0411,-2.79527 -0.0308,-0.46245 -0.26719,-1.17154 -0.23637,-0.7091 -0.23637,-0.97629 0,-0.27747 0.20554,-0.4419 0.21581,-0.17471 0.98656,-0.17471 0.78103,0 1.38736,0.35969 0.60633,0.35968 1.22293,1.07905 1.45929,1.68539 2.80554,3.79211 2.70278,4.23401 2.83638,4.23401 0.19526,0 0.19526,-2.00396 l 0.0205,-0.84269 q 0.0103,-0.43162 0.0103,-1.82925 0,-1.39764 -0.11305,-2.37393 -0.11304,-0.98656 -0.11304,-1.44901 0,-0.46246 0.35968,-0.76048 0.36997,-0.29803 1.03795,-0.29803 0.66799,0 0.96601,0.17471 0.54467,0.31858 0.54467,1.1921 l -0.0103,0.35968 q -0.0205,0.3083 -0.13359,0.77076 l -0.0925,0.36996 q -0.1336,0.53439 -0.19526,0.87352 -0.0617,0.33913 -0.0617,4.58342 0,4.24428 -0.23637,5.26168 -0.14387,0.60632 -0.64743,0.60632 -1.23321,0 -2.03479,-0.91462 -0.43162,-0.48301 -1.58262,-2.33282 -1.14071,-1.84981 -1.46957,-2.35337 -2.63084,-3.96681 -2.99052,-3.96681 -0.23637,0 -0.23637,2.01424 0,2.00396 0.0514,3.32965 0.0514,1.3257 0.13359,1.87037 0.0925,0.53439 0.0925,0.71937 0,1.58261 -2.02451,1.58261 z"
           style="font-style:normal;font-variant:normal;font-weight:bold;font-stretch:normal;font-size:21.04672432px;line-height:125%;font-family:'Averia GWF';-inkscape-font-specification:'Averia GWF Bold';letter-spacing:0px;word-spacing:0px;fill:#ffffff;fill-opacity:1"
           id="path4782" />
        <path
           d="m 215.41109,573.48632 v 0.82214 q 0,1.06878 0.3083,2.17866 0.83242,3.06247 3.41187,3.06247 1.57234,0 2.5178,-1.23321 0.41107,-0.53439 0.70909,-1.57234 0.29803,-1.04822 0.29803,-1.97313 l 0.0205,-0.32885 v -0.82214 q 0,-0.98657 -0.27747,-2.08618 -0.51383,-2.04506 -1.8087,-2.75416 -0.69882,-0.38023 -1.40791,-0.38023 h -0.31858 q -1.54151,0 -2.54863,1.42846 -0.32885,0.47273 -0.6166,1.47985 -0.28775,1.00712 -0.28775,2.17866 z m 10.18423,-0.0411 v 0.7091 q 0,1.54151 -0.47273,2.98025 -0.46245,1.42846 -1.24348,2.33281 -0.78103,0.89408 -2.03479,1.46957 -1.24348,0.5755 -2.68223,0.5755 -1.42846,-0.0103 -2.70277,-0.52411 -3.78184,-1.54151 -3.78184,-6.8443 v -0.47273 q 0,-1.71621 0.49329,-3.10357 0.50356,-1.39763 1.29486,-2.2506 0.80159,-0.85297 1.97313,-1.33597 1.18183,-0.48301 2.55891,-0.48301 h 0.24664 q 2.88776,0 4.66563,1.91147 0.68854,0.72965 1.18182,2.09645 0.50356,1.36681 0.50356,2.93914 z"
           style="font-style:normal;font-variant:normal;font-weight:bold;font-stretch:normal;font-size:21.04672432px;line-height:125%;font-family:'Averia GWF';-inkscape-font-specification:'Averia GWF Bold';letter-spacing:0px;word-spacing:0px;fill:#ffffff;fill-opacity:1"
           id="path4784" />
        <path
           d="m 234.02578,581.33774 q -3.46326,0 -4.50121,-1.47985 -0.31858,-0.46245 -0.31858,-0.85297 v -0.3083 q 0,-0.38024 0.23637,-0.70909 0.24664,-0.33914 0.50356,-0.33914 0.25692,0 1.65455,0.82214 1.39763,0.82214 2.50752,0.82214 1.12016,0 1.73676,-0.47273 0.62688,-0.48301 0.62688,-1.3668 0,-0.89408 -0.88379,-1.55179 -0.46246,-0.33913 -2.41503,-1.16127 -1.95258,-0.83241 -2.76444,-1.64427 -1.02767,-1.02768 -1.02767,-2.83638 0,-0.67826 0.32885,-1.39763 0.65771,-1.43874 2.5178,-2.05535 0.90435,-0.29802 1.73677,-0.29802 h 0.35968 q 3.06246,0 3.94626,1.18182 0.3083,0.42135 0.3083,0.99684 0,0.5755 -0.24664,0.85297 -0.23636,0.2672 -0.45217,0.2672 -0.20554,0 -1.84981,-0.85297 -0.95574,-0.49328 -1.99369,-0.49328 -1.02767,0 -1.52095,0.50355 -0.48301,0.49329 -0.48301,1.31542 0,0.81187 1.04823,1.46958 0.24664,0.16442 2.19922,0.99684 1.95257,0.84269 2.67194,1.52095 1.23321,1.17155 1.23321,2.90831 0,1.77788 -1.31542,2.96998 -1.31542,1.1921 -3.48381,1.1921 z"
           style="font-style:normal;font-variant:normal;font-weight:bold;font-stretch:normal;font-size:21.04672432px;line-height:125%;font-family:'Averia GWF';-inkscape-font-specification:'Averia GWF Bold';letter-spacing:0px;word-spacing:0px;fill:#ffffff;fill-opacity:1"
           id="path4786" />
        <path
           d="m 246.35742,574.88396 v 0.12332 q 0,0.21581 1.40791,0.21581 h 0.87353 q 1.28459,0 1.28459,-0.19526 v -0.12332 q 0,-0.91463 -1.44902,-4.68619 -0.19526,-0.51383 -0.2672,-0.51383 -0.0206,0 -0.11304,0.22609 -0.0822,0.21581 -0.20553,0.483 -1.53124,3.31938 -1.53124,4.47038 z m 8.13917,4.55258 v 0.20554 q 0,0.9249 -0.52412,1.26403 -0.33913,0.21582 -1.16127,0.21582 h -0.24664 q -0.84269,0 -1.13044,-0.50356 -0.14387,-0.24665 -0.31857,-1.43874 -0.17471,-1.1921 -0.60633,-1.64428 -0.43162,-0.45218 -1.62372,-0.45218 -2.71306,0 -3.18579,0.42135 -0.47273,0.42135 -0.67826,1.71621 -0.20553,1.28459 -0.3083,1.43874 -0.2672,0.41107 -1.06878,0.41107 -0.80158,0 -1.10989,-0.43162 -0.29802,-0.43162 -0.29802,-1.14072 0,-0.31857 0.86324,-2.04506 0.0822,-0.15415 1.55179,-4.40872 1.46957,-4.26484 1.87036,-5.09725 0.41107,-0.84269 0.79131,-1.07906 0.38024,-0.23636 1.13044,-0.23636 0.76048,0 1.09961,0.36996 0.33913,0.35969 0.86324,1.49013 0.53439,1.13043 1.4593,3.70989 0.93518,2.57946 1.3668,3.90516 0.43162,1.31542 0.50356,1.49012 0.76048,1.74704 0.76048,1.83953 z"
           style="font-style:normal;font-variant:normal;font-weight:bold;font-stretch:normal;font-size:21.04672432px;line-height:125%;font-family:'Averia GWF';-inkscape-font-specification:'Averia GWF Bold';letter-spacing:0px;word-spacing:0px;fill:#ffffff;fill-opacity:1"
           id="path4788" />
      </g>
      <g
         aria-label="Café de Origen"
         style="font-style:normal;font-weight:normal;line-height:0%;font-family:sans-serif;letter-spacing:0px;word-spacing:0px;fill:#ffffff;fill-opacity:1;stroke:none;stroke-width:1px;stroke-linecap:butt;stroke-linejoin:miter;stroke-opacity:1"
         id="text7179">
        <path
           d="m 44.726389,887.35719 q 0,-2.12118 1.035921,-4.27523 1.035922,-2.15406 2.663798,-3.53529 1.64432,-1.38123 3.28864,-1.38123 1.710092,0 1.710092,1.49633 0,1.06881 -0.657727,2.31849 -0.657728,1.24968 -1.364786,1.24968 -0.41108,0 -0.674171,-0.50974 0.624842,-0.69061 1.200353,-1.64431 0.591956,-0.95371 0.591956,-1.54567 0,-0.64128 -0.739944,-0.64128 -1.151024,0 -2.450037,1.39767 -1.299012,1.39767 -2.154059,3.43663 -0.855046,2.03896 -0.855046,3.78194 0,1.31545 0.591955,2.21983 0.591955,0.90437 1.792309,0.90437 1.282569,0 2.565139,-1.03592 1.299012,-1.03592 1.989626,-2.48292 l 0.427524,0.27953 q -0.937263,1.77587 -2.334934,2.89401 -1.381229,1.13458 -3.041992,1.13458 -1.759422,0 -2.680241,-1.20036 -0.904376,-1.18391 -0.904376,-2.86111 z"
           style="font-style:normal;font-variant:normal;font-weight:bold;font-stretch:normal;font-size:16.44319725px;line-height:1.25;font-family:'Dancing Script';-inkscape-font-specification:'Dancing Script Bold';fill:#ffffff;fill-opacity:1"
           id="path4793" />
        <path
           d="m 52.443901,889.31393 q 0,-0.95371 0.674171,-2.12118 0.674171,-1.16746 1.775865,-2.00607 1.118137,-0.8386 2.203388,-0.8386 0.723501,0 1.200354,0.3782 0.493296,0.36175 0.493296,0.93726 0,0.75638 -0.937263,0.78927 0.591956,0.18088 0.591956,0.47685 0,0.19732 -0.476853,1.00304 -0.46041,0.78927 -0.46041,1.18391 0,0.59195 0.493296,0.59195 0.46041,0 1.167467,-0.64128 0.723501,-0.64129 1.397672,-1.92385 l 0.312421,0.31242 q -0.608399,1.36478 -1.512774,2.20338 -0.904376,0.82216 -1.825195,0.82216 -0.657728,0 -1.019478,-0.44396 -0.345308,-0.42753 -0.345308,-0.98659 -0.739944,0.88793 -1.266126,1.29901 -0.526182,0.41108 -1.118137,0.41108 -0.575512,0 -0.953706,-0.3782 -0.394636,-0.37819 -0.394636,-1.0688 z m 1.315455,0.0822 q 0,0.52619 0.378194,0.52619 0.213761,0 0.443966,-0.11511 0.246648,-0.13154 0.526183,-0.37819 l 0.509739,-0.4933 q 0.246648,-0.24664 0.559068,-0.64128 l 0.493296,-0.62484 0.476853,-0.64129 0.394637,-0.54262 q 0.04933,-0.0822 0.131545,-0.0822 h 0.03289 l 0.03289,0.0164 q 0.08222,-0.26309 0.08222,-0.60839 0,-0.85505 -0.690614,-0.85505 -1.085251,0 -2.236275,1.61143 -1.134581,1.61144 -1.134581,2.82823 z"
           style="font-style:normal;font-variant:normal;font-weight:bold;font-stretch:normal;font-size:16.44319725px;line-height:1.25;font-family:'Dancing Script';-inkscape-font-specification:'Dancing Script Bold';fill:#ffffff;fill-opacity:1"
           id="path4795" />
        <path
           d="m 59.076418,893.01365 q 0,-1.24969 0.7235,-3.71617 0.707058,-2.46648 1.726536,-4.9494 1.035922,-2.48292 2.351377,-4.341 1.315456,-1.85808 2.367821,-1.85808 0.690614,0 0.690614,0.8386 0,1.36478 -1.381229,3.17354 -1.364785,1.80875 -3.107764,2.95977 l -0.263091,0.65773 q 0.345307,0.14799 0.41108,0.57551 0.115102,0.67417 0.180875,1.00304 0.08222,0.32886 0.246648,0.7235 0.164432,0.39463 0.41108,0.55907 0.246648,0.14798 0.608398,0.14798 0.542626,0 0.970149,-0.39463 0.443966,-0.39464 0.953705,-1.23324 l 0.361751,0.26309 q -0.493296,1.00303 -1.151024,1.51277 -0.641285,0.50974 -1.216797,0.50974 -0.559068,0 -1.167467,-0.44396 -0.01644,1.3319 -0.394636,2.63091 -0.378194,1.29901 -1.003035,2.12117 -0.608399,0.8386 -1.249683,0.8386 -0.394637,0 -0.723501,-0.3453 -0.345307,-0.34531 -0.345307,-1.23324 z m 1.529217,0.55907 q 0.443966,0 0.970149,-1.66077 0.542625,-1.66076 0.542625,-2.91044 0,-0.82216 -0.476852,-1.67721 -1.299013,3.81482 -1.299013,5.52491 0,0.72351 0.263091,0.72351 z m 2.318491,-9.60283 q 1.397672,-1.29901 2.269161,-2.58158 0.887933,-1.28257 0.887933,-1.77587 0,-0.13154 -0.131546,-0.13154 -0.575512,0 -1.381228,1.24968 -0.805717,1.23324 -1.64432,3.23931 z"
           style="font-style:normal;font-variant:normal;font-weight:bold;font-stretch:normal;font-size:16.44319725px;line-height:1.25;font-family:'Dancing Script';-inkscape-font-specification:'Dancing Script Bold';fill:#ffffff;fill-opacity:1"
           id="path4797" />
        <path
           d="m 65.309674,888.72197 q 0,-1.49633 1.381229,-3.07488 1.397672,-1.59499 2.877559,-1.59499 1.200354,0 1.200354,1.1017 0,1.18391 -1.28257,2.10473 -1.282569,0.92082 -2.861116,1.08525 -0.03289,0.16443 -0.03289,0.37819 0,0.16443 0.01644,0.31242 0.03289,0.14799 0.131545,0.41108 0.115103,0.24665 0.394637,0.41108 0.295978,0.14799 0.723501,0.14799 1.003035,0 2.038956,-0.80572 1.052365,-0.82216 1.69365,-2.03895 l 0.328864,0.26309 q -0.657728,1.47989 -1.890968,2.38426 -1.216797,0.90438 -2.532253,0.90438 -1.035921,0 -1.611433,-0.55907 -0.575512,-0.55907 -0.575512,-1.43056 z m 1.496331,-0.98659 q 0.953706,-0.1151 2.00607,-0.95371 1.068808,-0.8386 1.068808,-1.71009 0,-0.31242 -0.279534,-0.31242 -0.723501,0 -1.578547,0.95371 -0.855046,0.9537 -1.216797,2.02251 z m 3.272196,-5.03162 q 0,-0.32886 0.608399,-1.10169 0.624841,-0.78928 1.085251,-0.78928 0.427523,0 0.493296,0.57552 -1.397672,1.34834 -1.792309,1.85808 -0.180875,-0.0822 -0.295977,-0.24665 -0.09866,-0.18088 -0.09866,-0.29598 z"
           style="font-style:normal;font-variant:normal;font-weight:bold;font-stretch:normal;font-size:16.44319725px;line-height:1.25;font-family:'Dancing Script';-inkscape-font-specification:'Dancing Script Bold';fill:#ffffff;fill-opacity:1"
           id="path4799" />
        <path
           d="m 75.217729,889.00151 q 0,-0.92082 0.674171,-2.08829 0.674171,-1.18391 1.792308,-2.07184 1.118138,-0.88794 2.203389,-0.88794 0.805716,0 0.805716,0.52619 0,0.26309 -0.197318,0.37819 -0.131546,-0.18087 -0.575512,-0.18087 -0.838603,0 -1.64432,0.77283 -0.789273,0.77283 -1.216796,1.72653 -0.427523,0.93726 -0.427523,1.59499 0,0.69062 0.526182,0.69062 0.707057,0 1.726536,-1.20036 1.019478,-1.20035 1.775865,-3.15709 l 0.641285,-1.62788 0.641284,-1.54566 q 0.394637,-0.9537 0.674171,-1.49633 0.279535,-0.55907 0.608399,-1.15102 0.345307,-0.59196 0.624841,-0.85505 0.279534,-0.27953 0.526182,-0.27953 0.180876,0 0.312421,0.14798 0.147989,0.13155 0.147989,0.34531 0,0.34531 -0.591955,1.57855 l -1.266126,2.63091 q -0.690615,1.38123 -1.28257,3.09132 -0.591955,1.71009 -0.591955,2.91045 0,0.39463 0.06577,0.54262 0.08222,0.13155 0.263091,0.13155 0.559069,0 1.282569,-0.65773 0.723501,-0.65773 1.266127,-1.77586 l 0.31242,0.26309 q -0.542625,1.34834 -1.496331,2.20339 -0.953705,0.85504 -1.890967,0.85504 -1.200354,0 -1.200354,-1.43056 0,-0.37819 0.131546,-1.0688 -0.805717,1.16746 -1.660763,1.87452 -0.855046,0.69061 -1.562104,0.69061 -0.542625,0 -0.970148,-0.37819 -0.427523,-0.37819 -0.427523,-1.10169 z"
           style="font-style:normal;font-variant:normal;font-weight:bold;font-stretch:normal;font-size:16.44319725px;line-height:1.25;font-family:'Dancing Script';-inkscape-font-specification:'Dancing Script Bold';fill:#ffffff;fill-opacity:1"
           id="path4801" />
        <path
           d="m 83.262305,888.72197 q 0,-1.49633 1.381229,-3.07488 1.397672,-1.59499 2.877559,-1.59499 1.200354,0 1.200354,1.1017 0,1.18391 -1.28257,2.10473 -1.282569,0.92082 -2.861116,1.08525 -0.03289,0.16443 -0.03289,0.37819 0,0.16443 0.01644,0.31242 0.03289,0.14799 0.131545,0.41108 0.115103,0.24665 0.394637,0.41108 0.295978,0.14799 0.723501,0.14799 1.003035,0 2.038956,-0.80572 1.052365,-0.82216 1.69365,-2.03895 l 0.328864,0.26309 q -0.657728,1.47989 -1.890968,2.38426 -1.216797,0.90438 -2.532253,0.90438 -1.035921,0 -1.611433,-0.55907 -0.575512,-0.55907 -0.575512,-1.43056 z m 1.496331,-0.98659 q 0.953706,-0.1151 2.00607,-0.95371 1.068808,-0.8386 1.068808,-1.71009 0,-0.31242 -0.279534,-0.31242 -0.723501,0 -1.578547,0.95371 -0.855046,0.9537 -1.216797,2.02251 z"
           style="font-style:normal;font-variant:normal;font-weight:bold;font-stretch:normal;font-size:16.44319725px;line-height:1.25;font-family:'Dancing Script';-inkscape-font-specification:'Dancing Script Bold';fill:#ffffff;fill-opacity:1"
           id="path4803" />
        <path
           d="m 93.959635,887.29141 q 0,-2.07184 1.019478,-4.19301 1.035922,-2.13762 2.729571,-3.53529 1.693649,-1.39767 3.453076,-1.39767 0.67417,0 1.11813,0.46041 -0.26309,-0.0329 -0.47685,-0.0329 -1.38123,0 -2.82823,1.38123 -1.447001,1.38123 -2.384264,3.45307 -0.920819,2.07185 -0.920819,3.96281 0,1.41412 0.559069,2.33494 0.575512,0.90437 1.759422,0.90437 1.085251,0 2.071842,-0.8386 1.00304,-0.8386 1.66076,-2.12117 0.65773,-1.29902 1.05237,-2.79535 0.39464,-1.51277 0.39464,-2.87756 0,-0.90437 -0.18088,-1.62787 -0.16443,-0.73995 -0.55907,-0.73995 -0.52618,0 -1.23324,1.2168 -0.69061,1.20035 -0.90437,2.25272 -1.035926,-0.21376 -1.035926,-0.95371 0,-0.88793 1.134586,-2.03895 1.13458,-1.15103 2.07184,-1.15103 0.46041,0 0.78927,0.34531 0.32887,0.34531 0.47685,0.93726 0.16444,0.57551 0.23021,1.15103 0.0658,0.57551 0.0658,1.20035 0,2.00607 -0.64128,3.73261 -0.64129,1.71009 -1.62788,2.79534 -0.98659,1.08525 -2.137615,1.69365 -1.134581,0.6084 -2.203389,0.6084 -1.479887,0 -2.466479,-1.13458 -0.986592,-1.11814 -0.986592,-2.99267 z"
           style="font-style:normal;font-variant:normal;font-weight:bold;font-stretch:normal;font-size:16.44319725px;line-height:1.25;font-family:'Dancing Script';-inkscape-font-specification:'Dancing Script Bold';fill:#ffffff;fill-opacity:1"
           id="path4805" />
        <path
           d="m 103.99949,887.85048 q 0.75639,-1.34834 1.3319,-2.97622 -0.16443,-0.16443 -0.16443,-0.44396 0,-0.42753 0.26309,-0.80572 0.26309,-0.37819 0.50974,-0.37819 0.16443,0 0.26309,0.19732 0.1151,0.19731 0.1151,0.32886 0,0.0658 -0.0987,0.32886 -0.0822,0.24665 -0.0822,0.27954 0.0164,0.14799 0.29598,0.36175 0.27953,0.19732 0.60839,0.39463 0.32887,0.19732 0.59196,0.59196 0.27953,0.37819 0.27953,0.85505 0,0.52618 -0.42752,1.447 -0.42752,0.92082 -0.42752,1.18391 0,0.37819 0.41108,0.37819 0.7235,0 1.61143,-0.80572 0.88793,-0.82216 1.24968,-1.61143 l 0.39464,0.29598 q -0.50974,1.15102 -1.57855,2.0554 -1.05236,0.88793 -2.10473,0.88793 -0.60839,0 -0.98659,-0.32886 -0.37819,-0.31242 -0.37819,-0.85505 0,-0.47685 0.46041,-1.51277 0.47685,-1.03592 0.47685,-1.41412 0,-0.62484 -0.82216,-1.05236 -0.64128,1.57854 -1.54566,3.07488 z"
           style="font-style:normal;font-variant:normal;font-weight:bold;font-stretch:normal;font-size:16.44319725px;line-height:1.25;font-family:'Dancing Script';-inkscape-font-specification:'Dancing Script Bold';fill:#ffffff;fill-opacity:1"
           id="path4807" />
        <path
           d="m 109.84145,889.01795 q 0,-0.65773 0.34531,-1.72654 0.3453,-1.08525 0.93726,-1.98962 0.59195,-0.90438 1.16747,-0.90438 0.21376,0 0.3453,0.13155 0.14799,0.1151 0.14799,0.3453 0,0.21377 -0.42752,0.90438 -0.41108,0.67417 -0.8386,1.54566 -0.42753,0.85505 -0.42753,1.47989 0,0.50974 0.18088,0.69061 0.18087,0.18088 0.55907,0.18088 1.29901,0 2.58158,-2.51581 l 0.24665,0.26309 q -0.57551,1.447 -1.46345,2.25272 -0.88793,0.80571 -1.90741,0.80571 -0.69061,0 -1.06881,-0.41108 -0.37819,-0.41108 -0.37819,-1.05236 z m 2.56514,-6.59372 q 0,-0.3782 0.41108,-0.65773 0.42752,-0.29598 0.90437,-0.29598 0.70706,0 0.70706,0.6084 0,0.34531 -0.37819,0.67417 -0.37819,0.31242 -0.82216,0.31242 -0.34531,0 -0.59196,-0.16443 -0.2302,-0.16443 -0.2302,-0.47685 z"
           style="font-style:normal;font-variant:normal;font-weight:bold;font-stretch:normal;font-size:16.44319725px;line-height:1.25;font-family:'Dancing Script';-inkscape-font-specification:'Dancing Script Bold';fill:#ffffff;fill-opacity:1"
           id="path4809" />
        <path
           d="m 113.69147,893.53983 q 0,-0.39464 0.2302,-0.78927 0.23021,-0.3782 0.4933,-0.64129 0.26309,-0.24665 0.80572,-0.57551 0.55906,-0.32887 0.8386,-0.46041 l 0.93726,-0.46041 q 0.41108,-1.03592 0.65773,-2.0554 -1.3319,1.67721 -2.49937,1.67721 -0.65773,0 -1.05236,-0.46041 -0.3782,-0.46041 -0.3782,-1.2168 0,-1.64432 1.51278,-2.95978 1.51277,-1.31545 3.04199,-1.31545 0.50974,0 0.77283,0.18087 0.27953,0.18088 0.27953,0.44397 0,0.16443 -0.0986,0.29598 -0.0987,0.13154 -0.16444,0.14799 -0.29597,-0.29598 -0.70705,-0.29598 -0.0164,0 -0.0329,0 -1.2168,0 -2.23627,1.24968 -1.01948,1.23324 -1.01948,2.31849 0,0.67417 0.50974,0.67417 0.44396,0 1.08525,-0.57551 0.65772,-0.57551 1.29901,-1.47989 0.18087,-0.92081 0.42752,-1.31545 0.24665,-0.41108 0.70706,-0.41108 0.21376,0 0.47685,0.0658 0,0.42752 -0.36175,1.71009 -0.36175,1.28257 -0.87149,2.6638 0.82216,-0.34531 1.57855,-1.06881 0.77283,-0.73994 1.10169,-1.69365 l 0.29598,0.29598 q -0.36175,1.03592 -1.29901,1.87453 -0.92082,0.8386 -1.89097,1.28257 -1.62787,3.94636 -3.32152,3.94636 -0.46041,0 -0.78928,-0.27953 -0.32886,-0.26309 -0.32886,-0.77283 z m 0.73994,-0.16443 q 0,0.46041 0.31242,0.46041 0.32887,0 0.85505,-0.6084 0.52618,-0.6084 1.08525,-1.84164 -1.06881,0.52618 -1.66076,0.98659 -0.59196,0.47685 -0.59196,1.00304 z"
           style="font-style:normal;font-variant:normal;font-weight:bold;font-stretch:normal;font-size:16.44319725px;line-height:1.25;font-family:'Dancing Script';-inkscape-font-specification:'Dancing Script Bold';fill:#ffffff;fill-opacity:1"
           id="path4811" />
        <path
           d="m 120.32373,888.72197 q 0,-1.49633 1.38123,-3.07488 1.39767,-1.59499 2.87756,-1.59499 1.20035,0 1.20035,1.1017 0,1.18391 -1.28256,2.10473 -1.28257,0.92082 -2.86112,1.08525 -0.0329,0.16443 -0.0329,0.37819 0,0.16443 0.0164,0.31242 0.0329,0.14799 0.13154,0.41108 0.1151,0.24665 0.39464,0.41108 0.29598,0.14799 0.7235,0.14799 1.00303,0 2.03896,-0.80572 1.05236,-0.82216 1.69364,-2.03895 l 0.32887,0.26309 q -0.65773,1.47989 -1.89097,2.38426 -1.2168,0.90438 -2.53225,0.90438 -1.03592,0 -1.61143,-0.55907 -0.57552,-0.55907 -0.57552,-1.43056 z m 1.49633,-0.98659 q 0.95371,-0.1151 2.00607,-0.95371 1.06881,-0.8386 1.06881,-1.71009 0,-0.31242 -0.27953,-0.31242 -0.7235,0 -1.57855,0.95371 -0.85505,0.9537 -1.2168,2.02251 z"
           style="font-style:normal;font-variant:normal;font-weight:bold;font-stretch:normal;font-size:16.44319725px;line-height:1.25;font-family:'Dancing Script';-inkscape-font-specification:'Dancing Script Bold';fill:#ffffff;fill-opacity:1"
           id="path4813" />
        <path
           d="m 125.59866,889.75789 q 0,-0.0164 0.29598,-0.73994 0.29597,-0.7235 0.55906,-1.62788 0.2631,-0.90437 0.2631,-1.52921 0.36175,-0.39464 0.85504,-0.39464 0.57551,0 0.57551,0.49329 0,0.44397 -0.27953,1.46345 1.67721,-2.23628 3.10776,-2.23628 0.65773,0 1.01948,0.46041 0.36175,0.44397 0.36175,1.06881 0,0.54263 -0.32886,1.34834 -0.31242,0.78928 -0.31242,1.11814 0,0.47685 0.39463,0.47685 0.54263,0 1.16747,-0.73994 0.64129,-0.75639 1.15102,-1.77586 l 0.27954,0.2302 q -1.29901,2.94333 -2.94333,2.94333 -0.62484,0 -0.97015,-0.31242 -0.34531,-0.31242 -0.34531,-0.82216 0,-0.32886 0.23021,-1.06881 0.2302,-0.73994 0.2302,-1.10169 0,-0.64129 -0.57551,-0.64129 -0.46041,0 -0.98659,0.3782 -0.50974,0.36175 -1.06881,1.08525 -0.54263,0.7235 -0.8386,1.16747 l -0.77283,1.23324 q -0.70706,0 -1.06881,-0.47686 z"
           style="font-style:normal;font-variant:normal;font-weight:bold;font-stretch:normal;font-size:16.44319725px;line-height:1.25;font-family:'Dancing Script';-inkscape-font-specification:'Dancing Script Bold';fill:#ffffff;fill-opacity:1"
           id="path4815" />
      </g>
    </g>
  </g>
</svg>
